Coordinates
version=1
nRows=17
nColumns=33
inDegrees=yes

Units are S.I. units (second, meters, Newtons, ...)
Angles are in degrees.

endheader
time	ground_thorax_rot_x	ground_thorax_rot_y	ground_thorax_rot_z	ground_thorax_tx	ground_thorax_ty	ground_thorax_tz	clav_prot_r	clav_elev_r	scapula_abduction_r	scapula_elevation_r	scapula_upward_rot_r	scapula_winging_r	shoulder_elv_r	plane_of_elev_r	axial_rot_r	elbow_flexion_r	pro_sup_r	wrist_flex_r	wrist_dev_r	clav_prot_l	clav_elev_l	scapula_abduction_l	scapula_elevation_l	scapula_upward_rot_l	scapula_winging_l	shoulder_elv_l	plane_of_elev_l	axial_rot_l	elbow_flexion_l	pro_sup_l	wrist_flex_l	wrist_dev_l	
6.2300	-39.968490	-9.486775	8.094045	-190.037113	836.876048	-13.038939	10.380977	-45.000000	32.977339	-45.000000	-44.999999	1702.115598	-3532.615768	28.683721	87.591879	1452.365491	29.276696	18.446328	7.865198	14.708859	38.163480	-34.539390	-45.000000	-45.000000	441.975572	-2260.135606	141.036997	157.440228	730.015067	-325.086785	9.075377	-22.071435	
6.2400	-39.934968	-9.202517	8.021038	-190.799301	837.985633	-12.971951	9.973825	-45.000000	32.802350	-45.000000	-44.999998	1702.155830	-3532.519347	28.750209	87.402364	1452.432751	29.475276	18.360030	7.790419	14.873703	38.256772	-34.681930	-45.000000	-45.000000	442.102750	-2260.147012	141.120372	156.835366	730.130481	-325.040708	8.924713	-22.051521	
6.2500	-39.919469	-8.876610	7.939816	-191.507181	839.057165	-12.897575	9.449320	-45.000000	32.528937	-45.000000	-44.999996	1702.247172	-3532.390122	28.798814	87.181897	1452.530637	29.664361	18.228773	7.681514	15.067212	38.421721	-34.898862	-45.000000	-45.000000	442.266040	-2260.154456	141.191911	156.231474	730.281600	-324.984366	8.753194	-22.029852	
6.2600	-39.883833	-8.683167	7.914714	-192.094288	840.045811	-12.804095	9.224693	-45.000000	32.429030	-45.000000	-44.999993	1702.259471	-3532.304438	28.857582	87.015855	1452.601333	29.847494	18.163165	7.613372	15.156158	38.467908	-34.973297	-45.000000	-45.000000	442.370029	-2260.147112	141.249272	155.816702	730.383503	-324.900693	8.624301	-22.015588	
6.2700	-39.843992	-8.555714	7.919959	-192.556534	840.950747	-12.693233	9.128318	-45.000000	32.402618	-45.000000	-44.999988	1702.234529	-3532.240587	28.923563	86.871701	1452.658367	30.032479	18.138945	7.567561	15.200738	38.470438	-34.994839	-45.000000	-45.000000	442.444850	-2260.128925	141.302368	155.508648	730.471653	-324.787914	8.516504	-22.007793	
6.2800	-39.805968	-8.482066	7.945440	-192.881047	841.766912	-12.564952	9.137610	-45.000000	32.428393	-45.000000	-44.999979	1702.203359	-3532.182270	28.980078	86.749723	1452.711396	30.226645	18.121721	7.523433	15.204235	38.446426	-34.980688	-45.000000	-45.000000	442.506611	-2260.104056	141.341212	155.291538	730.545631	-324.644172	8.418101	-21.998508	
6.2900	-39.772152	-8.439067	7.982938	-193.071786	842.502968	-12.422373	9.187205	-45.000000	32.485982	-45.000000	-44.999962	1702.154229	-3532.137680	29.044567	86.639284	1452.752723	30.447096	18.140586	7.495951	15.198237	38.412395	-34.958808	-45.000000	-45.000000	442.550606	-2260.073040	141.383614	155.117150	730.616840	-324.468354	8.330091	-21.993389	
6.3000	-39.751748	-8.397298	8.013734	-193.139725	843.174080	-12.269520	9.223925	-45.000000	32.530850	-45.000000	-44.999932	1702.137004	-3532.079214	29.092182	86.532781	1452.802080	30.703152	18.135165	7.447895	15.194776	38.398954	-34.962537	-45.000000	-45.000000	442.606357	-2260.041754	141.413563	154.951313	730.689299	-324.264218	8.231244	-21.980464	
6.3100	-39.738809	-8.365673	8.044908	-193.095198	843.796096	-12.109537	9.260051	-45.000000	32.589461	-45.000000	-44.999879	1702.106591	-3532.030664	29.153677	86.430267	1452.844258	31.009684	18.166239	7.412534	15.199275	38.386236	-34.977473	-45.000000	-45.000000	442.649697	-2260.005794	141.448427	154.789862	730.760810	-324.030778	8.137880	-21.971021	
6.3200	-39.738640	-8.336092	8.063373	-192.948043	844.384546	-11.944831	9.297302	-45.000000	32.645281	-45.000000	-44.999783	1702.106410	-3531.966445	29.203026	86.327420	1452.902344	31.364111	18.166389	7.347499	15.203318	38.383073	-35.009084	-45.000000	-45.000000	442.706663	-2259.970855	141.463717	154.640876	730.830783	-323.771411	8.032553	-21.953500	
6.3300	-39.747199	-8.315058	8.082239	-192.707985	844.954559	-11.777146	9.328632	-45.000000	32.707009	-45.000000	-44.999612	1702.088852	-3531.910253	29.272928	86.218080	1452.957124	31.773873	18.210765	7.297998	15.215958	38.381419	-35.050891	-45.000000	-45.000000	442.749860	-2259.928680	141.482581	154.504361	730.902618	-323.480940	7.934533	-21.943411	
6.3400	-39.768974	-8.293019	8.086815	-192.384819	845.520305	-11.607659	9.364621	-45.000000	32.769602	-45.000000	-44.999305	1702.098236	-3531.840462	29.332861	86.098934	1453.030957	32.229056	18.221370	7.215953	15.224806	38.384625	-35.104993	-45.000000	-45.000000	442.805967	-2259.884265	141.483106	154.388022	730.974412	-323.158669	7.824745	-21.927469	
6.3500	-39.798455	-8.276049	8.091281	-191.988277	846.094903	-11.437043	9.395406	-45.000000	32.840102	-45.000000	-44.998757	1702.087337	-3531.776132	29.417603	85.968166	1453.105056	32.732607	18.288229	7.158944	15.239411	38.390594	-35.164106	-45.000000	-45.000000	442.849976	-2259.827845	141.491338	154.289497	731.053054	-322.797741	7.724596	-21.923736	
6.3600	-39.838097	-8.259521	8.086418	-191.528780	846.689548	-11.265815	9.436444	-45.000000	32.915498	-45.000000	-44.997766	1702.099465	-3531.700502	29.491155	85.825217	1453.198244	33.273171	18.320079	7.073611	15.237348	38.395502	-35.224334	-45.000000	-45.000000	442.897928	-2259.765264	141.486073	154.221209	731.132223	-322.395204	7.613027	-21.915379	
6.3700	-39.884878	-8.248678	8.080986	-191.015815	847.314983	-11.094140	9.472201	-45.000000	33.004719	-45.000000	-44.996018	1702.091038	-3531.631053	29.582289	85.662879	1453.287453	33.851704	18.387709	6.999789	15.242669	38.401463	-35.277182	-45.000000	-44.999999	442.940229	-2259.681948	141.468853	154.174282	731.210703	-321.944659	7.510277	-21.916810	
6.3800	-39.941290	-8.237722	8.068955	-190.459232	847.979753	-10.922561	9.518367	-45.000000	33.100995	-45.000000	-44.992812	1702.102494	-3531.549902	29.655624	85.484716	1453.393548	34.459147	18.405961	6.893608	15.229477	38.401442	-35.328192	-45.000000	-44.999999	442.984929	-2259.583182	141.436837	154.159137	731.282806	-321.446463	7.393939	-21.910180	
6.3900	-40.003906	-8.234413	8.053088	-189.867384	848.691748	-10.751912	9.560400	-45.000000	33.215935	-45.000000	-44.987277	1702.093691	-3531.470920	29.743125	85.286537	1453.494427	35.097675	18.446596	6.791939	15.224849	38.403568	-35.368018	-45.000000	-44.999998	443.032859	-2259.462024	141.386086	154.166363	731.352331	-320.900961	7.284573	-21.911474	
